<svg width="127" height="48" viewBox="0 0 127 48" fill="none" xmlns="http://www.w3.org/2000/svg">
<path d="M17.9091 48H0V1.45454H17.7273C22.5152 1.45454 26.6515 2.38636 30.1364 4.25C33.6364 6.09848 36.3333 8.76515 38.2273 12.25C40.1364 15.7197 41.0909 19.8788 41.0909 24.7273C41.0909 29.5758 40.1439 33.7424 38.25 37.2273C36.3561 40.697 33.6742 43.3636 30.2045 45.2273C26.7348 47.0758 22.6364 48 17.9091 48ZM12.6364 37.2727H17.4545C19.7576 37.2727 21.7197 36.9015 23.3409 36.1591C24.9773 35.4167 26.2197 34.1364 27.0682 32.3182C27.9318 30.5 28.3636 27.9697 28.3636 24.7273C28.3636 21.4848 27.9242 18.9545 27.0455 17.1364C26.1818 15.3182 24.9091 14.0379 23.2273 13.2954C21.5606 12.553 19.5152 12.1818 17.0909 12.1818H12.6364V37.2727Z" fill="white"/>
<path d="M47.0284 48V38.9091L64.392 24.5455C65.5436 23.5909 66.5284 22.697 67.3466 21.8636C68.1799 21.0151 68.8163 20.1439 69.2557 19.25C69.7102 18.3561 69.9375 17.3636 69.9375 16.2727C69.9375 15.0758 69.6799 14.053 69.1648 13.2045C68.6648 12.3561 67.9678 11.7045 67.0739 11.25C66.1799 10.7803 65.1496 10.5454 63.983 10.5454C62.8163 10.5454 61.786 10.7803 60.892 11.25C60.0133 11.7197 59.3314 12.4091 58.8466 13.3182C58.3617 14.2273 58.1193 15.3333 58.1193 16.6364H46.1193C46.1193 13.3636 46.8542 10.5454 48.3239 8.18181C49.7936 5.81818 51.8693 4 54.5511 2.72727C57.233 1.45454 60.3769 0.818176 63.983 0.818176C67.7102 0.818176 70.9375 1.41666 73.6648 2.61363C76.4072 3.79545 78.5208 5.46212 80.0057 7.61363C81.5057 9.76515 82.2557 12.2879 82.2557 15.1818C82.2557 16.9697 81.8845 18.75 81.142 20.5227C80.3996 22.2803 79.0663 24.2273 77.142 26.3636C75.2178 28.5 72.483 31.0455 68.9375 34L64.5739 37.6364V37.9091H82.7557V48H47.0284Z" fill="white"/>
<path d="M88.3125 48V1.45454H108.494C112.04 1.45454 115.017 1.93181 117.426 2.88636C119.85 3.8409 121.676 5.18939 122.903 6.93181C124.146 8.67424 124.767 10.7273 124.767 13.0909C124.767 14.803 124.388 16.3636 123.631 17.7727C122.888 19.1818 121.843 20.3636 120.494 21.3182C119.146 22.2576 117.57 22.9091 115.767 23.2727V23.7273C117.767 23.803 119.585 24.3106 121.222 25.25C122.858 26.1742 124.161 27.4545 125.131 29.0909C126.1 30.7121 126.585 32.6212 126.585 34.8182C126.585 37.3636 125.919 39.6288 124.585 41.6136C123.267 43.5985 121.388 45.1591 118.949 46.2955C116.509 47.4318 113.6 48 110.222 48H88.3125ZM100.949 37.9091H106.858C108.979 37.9091 110.57 37.5151 111.631 36.7273C112.691 35.9242 113.222 34.7424 113.222 33.1818C113.222 32.0909 112.972 31.1667 112.472 30.4091C111.972 29.6515 111.259 29.0758 110.335 28.6818C109.426 28.2879 108.328 28.0909 107.04 28.0909H100.949V37.9091ZM100.949 20.2727H106.131C107.237 20.2727 108.214 20.0985 109.062 19.75C109.911 19.4015 110.57 18.9015 111.04 18.25C111.525 17.5833 111.767 16.7727 111.767 15.8182C111.767 14.3788 111.252 13.2803 110.222 12.5227C109.191 11.75 107.888 11.3636 106.312 11.3636H100.949V20.2727Z" fill="white"/>
</svg>
